<svg width="54" height="54" viewBox="0 0 54 54" fill="none" xmlns="http://www.w3.org/2000/svg">
<g id="icons_Inst" clip-path="url(#clip0_712_249)">
<path id="Vector" d="M48 1H6C3.23858 1 1 3.23858 1 6V48C1 50.7614 3.23858 53 6 53H48C50.7614 53 53 50.7614 53 48V6C53 3.23858 50.7614 1 48 1Z" fill="black" stroke="black" stroke-width="2"/>
<path id="Vector_2" fill-rule="evenodd" clip-rule="evenodd" d="M19.9888 11.3525H34.0114C38.7738 11.3525 42.6482 15.2269 42.648 19.989V34.0116C42.648 38.7736 38.7738 42.648 34.0114 42.648H19.9888C15.2268 42.648 11.3525 38.7738 11.3525 34.0116V19.989C11.3525 15.2269 15.2268 11.3525 19.9888 11.3525ZM34.0116 39.8713C37.2427 39.8713 39.8715 37.2427 39.8715 34.0116L39.8713 19.989C39.8713 16.758 37.2425 14.1292 34.0114 14.1292H19.9888C16.7578 14.1292 14.1292 16.758 14.1292 19.989V34.0116C14.1292 37.2427 16.7578 39.8715 19.9888 39.8713H34.0116ZM18.8038 27.0005C18.8038 22.4808 22.4807 18.8038 27.0003 18.8038C31.5198 18.8038 35.1967 22.4808 35.1967 27.0005C35.1967 31.5199 31.5198 35.1967 27.0003 35.1967C22.4807 35.1967 18.8038 31.5199 18.8038 27.0005ZM21.6261 27.0003C21.6261 29.9635 24.0371 32.3742 27.0003 32.3742C29.9635 32.3742 32.3744 29.9635 32.3744 27.0003C32.3744 24.0368 29.9636 21.626 27.0003 21.626C24.0369 21.626 21.6261 24.0368 21.6261 27.0003Z" fill="#D9D9D9"/>
</g>
<defs>
<clipPath id="clip0_712_249">
<rect width="54" height="54" fill="white"/>
</clipPath>
</defs>
</svg>
