<svg width="54" height="54" viewBox="0 0 54 54" fill="none" xmlns="http://www.w3.org/2000/svg">
<g id="icons_FB" clip-path="url(#clip0_712_246)">
<path id="Vector" d="M48 1H6C3.23858 1 1 3.23858 1 6V48C1 50.7614 3.23858 53 6 53H48C50.7614 53 53 50.7614 53 48V6C53 3.23858 50.7614 1 48 1Z" fill="black" stroke="black" stroke-width="2"/>
<path id="Vector_2" fill-rule="evenodd" clip-rule="evenodd" d="M29.6059 40.909V28.2208H33.9463L34.5975 23.2745H29.6059V20.117C29.6059 18.6853 30.0096 17.7097 32.105 17.7097L34.7732 17.7086V13.2845C34.3117 13.2257 32.7279 13.0908 30.8844 13.0908C27.0349 13.0908 24.3994 15.3955 24.3994 19.6271V23.2745H20.0459V28.2208H24.3994V40.909H29.6059Z" fill="#DBDEE7"/>
</g>
<defs>
<clipPath id="clip0_712_246">
<rect width="54" height="54" fill="white"/>
</clipPath>
</defs>
</svg>
