<svg width="54" height="54" viewBox="0 0 54 54" fill="none" xmlns="http://www.w3.org/2000/svg">
<g id="Group 2">
<path id="Vector" d="M48 1H6C3.23858 1 1 3.23858 1 6V48C1 50.7614 3.23858 53 6 53H48C50.7614 53 53 50.7614 53 48V6C53 3.23858 50.7614 1 48 1Z" fill="black" stroke="black" stroke-width="2"/>
<path id="Vector_2" d="M28.7496 34.5953C27.9687 35.3545 27.1981 36.1023 26.4297 36.8512C25.7698 37.4933 25.1089 38.1355 24.4553 38.7839C24.2204 39.0169 23.974 39.194 23.6274 39.048C23.2755 38.8999 23.2463 38.6005 23.2703 38.2701C23.4384 35.9521 23.596 33.6321 23.7777 31.3151C23.7913 31.138 23.9291 30.936 24.068 30.8086C27.3192 27.8267 30.5778 24.8541 33.8353 21.8794C35.225 20.6106 36.6136 19.3418 38.0023 18.073C38.0889 17.9943 38.2007 17.927 38.2497 17.8286C38.2988 17.7302 38.3322 17.5645 38.281 17.493C38.2309 17.4236 38.0639 17.4133 37.9501 17.4205C37.8686 17.4257 37.7903 17.5013 37.7131 17.5479C31.5405 21.2911 25.3689 25.0322 19.2026 28.7848C18.93 28.9505 18.7077 28.9702 18.4101 28.8676C15.9283 28.0183 13.4403 27.1845 10.9543 26.3476C10.3132 26.1312 10.0042 25.7707 10 25.2259C9.99689 24.6967 10.2851 24.3331 10.9021 24.099C19.8603 20.6966 28.8196 17.2942 37.7778 13.8917C39.2583 13.3293 40.7451 12.7804 42.2183 12.2004C42.9846 11.8989 43.6956 11.9041 44.3398 12.4479C44.984 12.9917 45.1031 13.6908 44.9256 14.4873C43.5276 20.7463 42.1389 27.0074 40.7472 33.2675C40.2711 35.4084 39.7991 37.5513 39.3168 39.6912C39.0307 40.9631 37.831 41.3919 36.7786 40.6026C34.1924 38.6637 31.6094 36.7217 29.0253 34.7817C28.9438 34.7206 28.8572 34.6678 28.7496 34.5953Z" fill="#D9D9D9"/>
</g>
</svg>
