<svg width="133" height="82" viewBox="0 0 133 82" fill="none" xmlns="http://www.w3.org/2000/svg">
<path d="M74.6872 79.4761C74.6033 79.4761 74.5186 79.4646 74.4347 79.4407C73.9454 79.2997 73.6605 78.782 73.7995 78.2856C76.2407 69.5673 76.1551 63.8115 73.5609 61.5812C72.6645 65.908 70.9536 69.913 68.6513 73.0271C65.5311 77.2467 61.5809 79.4761 57.2278 79.4761L57.1868 79.4752C53.4803 79.3095 52.1522 77.4576 51.6908 75.9338C50.7446 72.8108 52.8591 67.0701 57.9233 63.2415C59.8072 61.817 66.9737 57.5522 72.1533 58.8385C72.9921 52.3646 71.7225 45.3288 66.9606 43.8919C63.7312 42.9168 60.8897 43.1357 58.5175 44.539C53.9678 47.2303 52.5279 53.3858 52.5139 53.447C52.3995 53.9505 51.9049 54.2643 51.4086 54.1491C50.9123 54.033 50.603 53.5312 50.7166 53.0277C50.7813 52.7432 52.3566 46.0176 57.5887 42.923C60.4188 41.2485 63.7836 40.8593 67.4866 42.0986C72.8121 43.8821 75.2158 50.5013 73.9235 59.5068C73.9218 59.5228 73.9192 59.5379 73.9165 59.5538C74.0432 59.6292 74.1673 59.7098 74.2896 59.7949C77.9533 62.3577 78.3849 68.7509 75.5723 78.7962C75.4578 79.2084 75.0891 79.4761 74.6872 79.4761ZM70.0685 60.4651C66.0501 60.4651 60.9142 63.3142 59.026 64.7414C55.2138 67.6242 52.61 72.5981 53.4541 75.3851C53.8709 76.76 55.1474 77.5073 57.2488 77.6057C64.8443 77.5906 70.1978 69.312 71.8562 60.6903C71.2988 60.5343 70.6968 60.4651 70.0685 60.4651Z" fill="black"/>
<path d="M107.764 19.715C107.764 15.2272 107.782 10.7395 107.749 6.2517C107.742 5.34163 107.591 4.42276 107.414 3.52591C107.25 2.69602 106.723 2.09518 105.926 1.756C105.676 1.65028 105.403 1.51725 105.474 1.18159C105.552 0.817745 105.874 0.834484 106.157 0.834484C109.784 0.832722 113.411 0.832722 117.037 0.832722C117.111 0.832722 117.2 0.810697 117.257 0.843294C117.424 0.939322 117.702 1.05209 117.707 1.1675C117.714 1.33753 117.558 1.55778 117.409 1.68288C117.05 1.98242 116.596 2.18504 116.287 2.52334C115.714 3.15237 115.528 3.97081 115.498 4.79454C115.444 6.27901 115.437 7.76436 115.431 9.25059C115.422 11.9702 115.428 14.6889 115.427 17.4086C115.427 18.2799 115.475 18.3028 116.33 18.2948C118.188 18.2781 120.046 18.2887 121.904 18.2887C121.963 18.2887 122.023 18.2948 122.082 18.2957C122.964 18.3089 123.057 18.2182 123.057 17.3478C123.056 13.6476 123.072 9.94745 123.043 6.24729C123.036 5.42268 122.912 4.59191 122.77 3.77611C122.601 2.80614 122.055 2.09606 121.107 1.73574C120.842 1.6353 120.599 1.48466 120.666 1.15693C120.737 0.809817 121.048 0.831841 121.315 0.831841C124.48 0.83096 127.646 0.833603 130.812 0.834484C131.362 0.834484 131.913 0.802769 132.46 0.841532C132.64 0.854747 132.921 1.02125 132.949 1.15957C132.979 1.30581 132.804 1.60095 132.651 1.66438C131.206 2.25905 130.761 3.47569 130.74 4.86414C130.675 9.20125 130.655 13.5392 130.643 17.8772C130.629 23.0337 130.631 28.1901 130.655 33.3466C130.658 34.1571 130.768 34.9764 130.917 35.7755C131.087 36.6882 131.618 37.3665 132.495 37.7427C132.629 37.8 132.77 37.8722 132.869 37.9753C133.112 38.2264 133.001 38.5823 132.66 38.6581C132.517 38.6898 132.365 38.6827 132.217 38.6827C128.635 38.6845 125.053 38.6845 121.471 38.6845C121.426 38.6845 121.382 38.6862 121.337 38.6836C121.058 38.6677 120.723 38.7153 120.657 38.3383C120.594 37.9815 120.888 37.8616 121.155 37.7515C122.494 37.1974 122.864 36.0265 122.94 34.757C123.039 33.0981 123.042 31.4331 123.05 29.7697C123.065 26.5753 123.055 23.3799 123.054 20.1854C123.054 19.308 122.962 19.2225 122.077 19.2225C120.071 19.2225 118.064 19.2252 116.058 19.2111C115.645 19.2084 115.447 19.3767 115.435 19.7802C115.43 19.9141 115.428 20.048 115.428 20.181C115.428 24.5798 115.41 28.9786 115.444 33.3765C115.452 34.2566 115.61 35.1455 115.784 36.0133C115.948 36.8326 116.486 37.4026 117.256 37.7427C117.337 37.7788 117.445 37.8008 117.491 37.8643C117.595 38.0096 117.744 38.1832 117.731 38.3339C117.722 38.4493 117.51 38.5849 117.361 38.644C117.217 38.7012 117.039 38.6801 116.876 38.6801C113.338 38.6818 109.802 38.6818 106.264 38.681C106.175 38.681 106.07 38.7083 106 38.6713C105.804 38.5708 105.623 38.4431 105.436 38.3259C105.553 38.1532 105.631 37.8916 105.792 37.8229C107.184 37.2264 107.625 36.0327 107.672 34.6866C107.755 32.2673 107.748 29.8446 107.76 27.4237C107.773 24.8565 107.764 22.2857 107.764 19.715Z" fill="black"/>
<path d="M56.3667 17.0478C56.3667 13.4295 56.387 9.81042 56.3517 6.19307C56.3429 5.32001 56.1772 4.44342 56.0299 3.57829C55.8792 2.69466 55.2939 2.13347 54.504 1.76962C54.2316 1.64452 53.9045 1.53527 53.9927 1.16173C54.0808 0.787313 54.4432 0.837529 54.7288 0.837529C58.0945 0.834005 61.462 0.83841 64.8287 0.841053C65.1372 0.841053 65.4528 0.806695 65.7525 0.859554C65.9227 0.889508 66.1863 1.05778 66.1942 1.17671C66.2048 1.34322 66.0549 1.61897 65.9042 1.68064C64.5836 2.22861 64.0935 3.31487 64.0141 4.62226C63.933 5.95608 63.9198 7.29607 63.918 8.63341C63.911 15.3703 63.9074 22.1064 63.9277 28.8433C63.933 30.534 64.0176 32.2237 64.5801 33.85C65.4228 36.2851 67.4795 37.1828 69.8579 36.8903C71.6774 36.6657 72.7996 35.5406 73.5525 33.9161C74.2506 32.4105 74.4693 30.8291 74.5407 29.2072C74.881 21.4906 74.6094 13.7696 74.6747 6.05123C74.6817 5.209 74.5169 4.35092 74.3256 3.52455C74.1334 2.69466 73.5542 2.12554 72.7723 1.7749C72.6401 1.71588 72.4972 1.65421 72.395 1.55642C72.1605 1.33088 72.2363 0.999632 72.5404 0.883341C72.648 0.842815 72.7705 0.825195 72.886 0.825195C74.3855 0.828719 75.885 0.831362 77.3846 0.848982C77.9091 0.855149 78.0924 1.11768 77.8562 1.48858C77.798 1.5802 77.6896 1.66126 77.5864 1.70002C76.3487 2.17223 75.8842 3.19506 75.7607 4.39144C75.6567 5.39754 75.647 6.41684 75.6453 7.43086C75.6373 14.7854 75.6497 22.1399 75.6373 29.4944C75.6347 31.1119 75.3182 32.6986 74.6941 34.1804C73.8213 36.2533 72.3024 37.6876 70.0659 38.2356C67.23 38.9298 64.4161 38.8681 61.6613 37.8488C59.8365 37.1731 58.5476 35.8983 57.7084 34.1478C56.7951 32.2422 56.4046 30.2106 56.379 28.1244C56.3341 24.4322 56.3667 20.74 56.3667 17.0478Z" fill="black"/>
<path d="M12.4683 38.6893C9.53802 38.699 6.96919 37.7361 4.85965 35.7001C3.42097 34.3108 2.38515 32.6316 1.66492 30.756C0.780732 28.4513 0.296762 26.0621 0.125742 23.6112C-0.093763 20.4616 -0.0629089 17.3147 0.518031 14.1987C1.05401 11.3249 1.93027 8.57355 3.61226 6.13497C5.58252 3.27791 8.23686 1.42079 11.6916 0.96091C14.8802 0.537153 17.9445 1.09394 20.7266 2.79777C21.4089 3.21536 22.0269 3.74396 22.644 4.25846C23.0618 4.60733 23.1976 5.03549 23.0548 5.62752C22.785 6.7499 22.6299 7.89959 22.4342 9.03871C22.1856 10.4809 21.9449 11.924 21.6981 13.367C21.6787 13.4815 21.6558 13.6014 21.6038 13.7044C21.4627 13.9855 21.1797 13.9934 21.0334 13.7124C20.9541 13.5608 20.9232 13.3802 20.8888 13.2093C20.4648 11.0914 19.8424 9.03695 18.9785 7.05384C18.298 5.49184 17.4138 4.08226 16.1708 2.90085C14.9216 1.71416 13.4556 1.23137 11.7745 1.56439C10.5862 1.80049 9.7064 2.5511 9.00557 3.52195C7.73614 5.27864 7.26099 7.31814 6.98947 9.4052C6.78671 10.9698 6.62892 12.5539 6.63509 14.1291C6.64567 16.7782 6.82374 19.4203 7.26539 22.0448C7.56776 23.8438 7.9865 25.6075 8.59829 27.3166C9.42959 29.6389 10.5492 31.807 12.4718 33.4413C13.6734 34.4623 15.0874 35.0429 16.6715 34.9478C18.1402 34.8605 19.2976 34.1011 20.1457 32.8986C20.88 31.8581 21.4072 30.7111 21.6849 29.4724C22.0745 27.7316 22.4051 25.9784 22.7507 24.2279C22.8044 23.9565 22.7815 23.6702 22.8362 23.3997C22.8626 23.2685 22.9869 23.1575 23.0671 23.0376C23.1421 23.161 23.2884 23.2879 23.2813 23.4059C23.2285 24.3257 23.195 25.2516 23.061 26.1616C22.8732 27.4338 22.6784 28.7139 22.3531 29.9561C21.6699 32.5691 20.6191 35.0024 18.4937 36.8119C17.0259 38.0621 15.2795 38.5748 13.3913 38.684C13.0845 38.7043 12.7759 38.6893 12.4683 38.6893Z" fill="black"/>
<path d="M90.9861 38.6893C88.0558 38.699 85.487 37.7361 83.3775 35.7001C81.9388 34.3108 80.903 32.6316 80.1827 30.756C79.2986 28.4513 78.8146 26.0621 78.6436 23.6112C78.4241 20.4616 78.4549 17.3147 79.0359 14.1987C79.5718 11.3249 80.4481 8.57355 82.1301 6.13497C84.1003 3.27791 86.7547 1.42079 90.2095 0.96091C93.398 0.537153 96.4623 1.09394 99.2444 2.79777C99.9268 3.21536 100.545 3.74396 101.162 4.25846C101.58 4.60733 101.715 5.03549 101.573 5.62752C101.303 6.7499 101.148 7.89959 100.952 9.03871C100.703 10.4809 100.463 11.924 100.216 13.367C100.197 13.4815 100.174 13.6014 100.122 13.7044C99.9814 13.9855 99.6984 13.9934 99.5521 13.7124C99.4728 13.5608 99.4419 13.3802 99.4075 13.2093C98.9835 11.0914 98.3611 9.03695 97.4972 7.05384C96.8167 5.49184 95.9325 4.08226 94.6895 2.90085C93.4403 1.71416 91.9743 1.23137 90.2932 1.56439C89.1049 1.80049 88.2251 2.5511 87.5243 3.52195C86.2548 5.27864 85.7797 7.31814 85.5082 9.4052C85.3054 10.9698 85.1476 12.5539 85.1538 14.1291C85.1644 16.7782 85.3424 19.4203 85.7841 22.0448C86.0865 23.8438 86.5052 25.6075 87.117 27.3166C87.9483 29.6389 89.0679 31.807 90.9905 33.4413C92.1921 34.4623 93.6061 35.0429 95.1902 34.9478C96.6589 34.8605 97.8163 34.1011 98.6644 32.8986C99.3987 31.8581 99.9259 30.7111 100.204 29.4724C100.593 27.7316 100.924 25.9784 101.269 24.2279C101.323 23.9565 101.3 23.6702 101.355 23.3997C101.381 23.2685 101.506 23.1575 101.586 23.0376C101.661 23.161 101.807 23.2879 101.8 23.4059C101.747 24.3257 101.714 25.2516 101.58 26.1616C101.392 27.4338 101.197 28.7139 100.872 29.9561C100.189 32.5691 99.1378 35.0024 97.0124 36.8119C95.5446 38.0621 93.7982 38.5748 91.91 38.684C91.6023 38.7043 91.2938 38.6893 90.9861 38.6893Z" fill="black"/>
<path d="M107.764 62.13C107.764 57.6423 107.782 53.1545 107.749 48.6667C107.742 47.7567 107.591 46.8378 107.414 45.9409C107.25 45.1111 106.723 44.5102 105.926 44.171C105.676 44.0653 105.403 43.9323 105.474 43.5966C105.552 43.2328 105.874 43.2495 106.157 43.2495C109.784 43.2478 113.411 43.2478 117.037 43.2478C117.111 43.2478 117.2 43.2257 117.257 43.2583C117.424 43.3544 117.702 43.4671 117.707 43.5825C117.714 43.7526 117.558 43.9728 117.409 44.0979C117.05 44.3975 116.596 44.6001 116.287 44.9384C115.714 45.5674 115.528 46.3858 115.498 47.2096C115.444 48.694 115.437 50.1794 115.431 51.6656C115.422 54.3852 115.428 57.104 115.427 59.8236C115.427 60.6949 115.475 60.7178 116.33 60.7099C118.188 60.6931 120.046 60.7037 121.904 60.7037C121.963 60.7037 122.023 60.7099 122.082 60.7108C122.964 60.724 123.057 60.6332 123.057 59.7628C123.056 56.0626 123.072 52.3625 123.043 48.6623C123.036 47.8377 122.912 47.0069 122.77 46.1912C122.601 45.2212 122.055 44.5111 121.107 44.1508C120.842 44.0503 120.599 43.8997 120.666 43.572C120.737 43.2249 121.048 43.2469 121.315 43.2469C124.48 43.246 127.646 43.2486 130.812 43.2495C131.362 43.2495 131.913 43.2178 132.46 43.2566C132.64 43.2698 132.921 43.4363 132.949 43.5746C132.979 43.7209 132.804 44.016 132.651 44.0794C131.206 44.6741 130.761 45.8907 130.74 47.2792C130.675 51.6163 130.655 55.9543 130.643 60.2923C130.629 65.4487 130.631 70.6052 130.655 75.7616C130.658 76.5721 130.768 77.3914 130.917 78.1905C131.087 79.1032 131.618 79.7816 132.495 80.1577C132.629 80.215 132.77 80.2873 132.869 80.3903C133.112 80.6414 133.001 80.9973 132.66 81.0731C132.517 81.1048 132.365 81.0978 132.217 81.0978C128.635 81.0995 125.053 81.0995 121.471 81.0995C121.426 81.0995 121.382 81.1013 121.337 81.0986C121.058 81.0828 120.723 81.1304 120.657 80.7533C120.594 80.3965 120.888 80.2767 121.155 80.1666C122.494 79.6124 122.864 78.4416 122.94 77.1721C123.039 75.5132 123.042 73.8481 123.05 72.1848C123.065 68.9903 123.055 65.795 123.054 62.6005C123.054 61.723 122.962 61.6376 122.077 61.6376C120.071 61.6376 118.064 61.6402 116.058 61.6261C115.645 61.6235 115.447 61.7917 115.435 62.1952C115.43 62.3291 115.428 62.463 115.428 62.5961C115.428 66.9949 115.41 71.3936 115.444 75.7916C115.452 76.6717 115.61 77.5606 115.784 78.4284C115.948 79.2477 116.486 79.8177 117.256 80.1577C117.337 80.1939 117.445 80.2159 117.491 80.2793C117.595 80.4247 117.744 80.5982 117.731 80.7489C117.722 80.8643 117.51 81 117.361 81.059C117.217 81.1163 117.039 81.0951 116.876 81.0951C113.338 81.0969 109.802 81.0969 106.264 81.096C106.175 81.096 106.07 81.1233 106 81.0863C105.804 80.9859 105.623 80.8581 105.436 80.741C105.553 80.5683 105.631 80.3066 105.792 80.2379C107.184 79.6415 107.625 78.4477 107.672 77.1016C107.755 74.6824 107.748 72.2597 107.76 69.8387C107.773 67.2715 107.764 64.7008 107.764 62.13Z" fill="black"/>
<path d="M12.4683 81.1024C9.53802 81.1121 6.96919 80.1492 4.85965 78.1132C3.42097 76.7239 2.38515 75.0447 1.66492 73.1691C0.780732 70.8644 0.296762 68.4752 0.125742 66.0243C-0.093763 62.8747 -0.0629089 59.7278 0.518031 56.6118C1.05401 53.738 1.93027 50.9866 3.61226 48.5481C5.58252 45.6919 8.23686 43.8339 11.6916 43.374C14.8802 42.9502 17.9445 43.507 20.7266 45.2109C21.4089 45.6285 22.0269 46.157 22.644 46.6715C23.0618 47.0204 23.1976 47.4486 23.0548 48.0406C22.785 49.163 22.6299 50.3127 22.4342 51.4518C22.1856 52.894 21.9449 54.337 21.6981 55.7801C21.6787 55.8946 21.6558 56.0144 21.6038 56.1175C21.4627 56.3986 21.1797 56.4065 21.0334 56.1255C20.9541 55.9739 20.9232 55.7933 20.8888 55.6224C20.4648 53.5045 19.8424 51.45 18.9785 49.4669C18.298 47.9049 17.4138 46.4953 16.1708 45.3139C14.9216 44.1272 13.4556 43.6445 11.7745 43.9775C10.5862 44.2136 9.7064 44.9642 9.00557 45.935C7.73614 47.6917 7.26099 49.7312 6.98947 51.8183C6.78671 53.3829 6.62892 54.9669 6.63509 56.5422C6.64567 59.1913 6.82374 61.8334 7.26539 64.4579C7.56776 66.2568 7.9865 68.0206 8.59829 69.7297C9.42959 72.052 10.5492 74.2201 12.4718 75.8544C13.6734 76.8754 15.0874 77.456 16.6715 77.3608C18.1402 77.2736 19.2976 76.5142 20.1457 75.3117C20.88 74.2712 21.4072 73.1242 21.6849 71.8855C22.0745 70.1446 22.4051 68.3915 22.7507 66.641C22.8044 66.3696 22.7815 66.0833 22.8362 65.8128C22.8626 65.6816 22.9869 65.5705 23.0671 65.4507C23.1421 65.5741 23.2884 65.7009 23.2813 65.819C23.2285 66.7387 23.195 67.6647 23.061 68.5747C22.8732 69.8469 22.6784 71.127 22.3531 72.3692C21.6699 74.9822 20.6191 77.4155 18.4937 79.225C17.0259 80.4752 15.2795 80.9879 13.3913 81.0971C13.0845 81.1174 12.7759 81.1024 12.4683 81.1024Z" fill="black"/>
<path d="M90.9861 81.1024C88.0558 81.1121 85.487 80.1492 83.3775 78.1132C81.9388 76.7239 80.903 75.0447 80.1827 73.1691C79.2986 70.8644 78.8146 68.4752 78.6436 66.0243C78.4241 62.8747 78.4549 59.7278 79.0359 56.6118C79.5718 53.738 80.4481 50.9866 82.1301 48.5481C84.1003 45.6919 86.7547 43.8339 90.2095 43.374C93.398 42.9502 96.4623 43.507 99.2444 45.2109C99.9268 45.6285 100.545 46.157 101.162 46.6715C101.58 47.0204 101.715 47.4486 101.573 48.0406C101.303 49.163 101.148 50.3127 100.952 51.4518C100.703 52.894 100.463 54.337 100.216 55.7801C100.197 55.8946 100.174 56.0144 100.122 56.1175C99.9814 56.3986 99.6984 56.4065 99.5521 56.1255C99.4728 55.9739 99.4419 55.7933 99.4075 55.6224C98.9835 53.5045 98.3611 51.45 97.4972 49.4669C96.8167 47.9049 95.9325 46.4953 94.6895 45.3139C93.4403 44.1272 91.9743 43.6445 90.2932 43.9775C89.1049 44.2136 88.2251 44.9642 87.5243 45.935C86.2548 47.6917 85.7797 49.7312 85.5082 51.8183C85.3054 53.3829 85.1476 54.9669 85.1538 56.5422C85.1644 59.1913 85.3424 61.8334 85.7841 64.4579C86.0865 66.2568 86.5052 68.0206 87.117 69.7297C87.9483 72.052 89.0679 74.2201 90.9905 75.8544C92.1921 76.8754 93.6061 77.456 95.1902 77.3608C96.6589 77.2736 97.8163 76.5142 98.6644 75.3117C99.3987 74.2712 99.9259 73.1242 100.204 71.8855C100.593 70.1446 100.924 68.3915 101.269 66.641C101.323 66.3696 101.3 66.0833 101.355 65.8128C101.381 65.6816 101.506 65.5705 101.586 65.4507C101.661 65.5741 101.807 65.7009 101.8 65.819C101.747 66.7387 101.714 67.6647 101.58 68.5747C101.392 69.8469 101.197 71.127 100.872 72.3692C100.189 74.9822 99.1378 77.4155 97.0124 79.225C95.5446 80.4752 93.7982 80.9879 91.91 81.0971C91.6023 81.1174 91.2938 81.1024 90.9861 81.1024Z" fill="black"/>
<path d="M24.8618 62.1804C24.7251 58.7859 25.0954 55.4461 26.1083 52.2049C27.286 48.4361 29.3092 45.2724 33.2515 43.9738C38.8272 42.137 45.1938 43.5959 48.0615 50.0465C49.5037 53.2912 50.126 56.7262 50.1146 60.2466C50.1058 63.0631 49.9965 65.8964 49.6685 68.6918C49.3256 71.6087 48.3744 74.3751 46.5831 76.7784C44.217 79.9517 40.9676 81.193 37.1153 81.1049C30.9894 80.9657 27.6616 77.1123 26.118 72.1567C25.106 68.912 24.7243 65.5748 24.8618 62.1804ZM42.4592 62.2156C42.3931 62.213 42.3191 58.6088 42.2468 56.8143C42.1172 53.6092 41.955 50.4024 41.0152 47.2987C40.4158 45.3191 39.0944 44.1562 37.467 44.1835C35.8221 44.2108 34.4107 45.3887 34.0052 47.3859C33.5027 49.8606 32.9544 52.3653 32.8468 54.8752C32.5868 60.9673 32.4545 67.0734 33.1765 73.1514C33.3987 75.0243 33.6825 76.9185 34.743 78.5501C36.1465 80.7094 39.0803 80.7473 40.2457 78.4628C41.0417 76.9017 41.5759 75.1001 41.7619 73.3557C42.156 69.6591 42.245 65.9308 42.4592 62.2156Z" fill="black"/>
<path d="M35.2335 39.7381C34.508 39.7381 33.7799 39.6576 33.0544 39.495C28.6016 38.4987 25.8975 35.8129 25.2358 31.7259C24.5261 27.3437 26.2536 21.8476 28.4669 17.2319C27.6547 15.0801 27.3493 12.7675 27.59 10.644C27.9295 7.64881 29.2545 5.08153 31.4213 3.22148C33.8892 1.1033 37.2708 0.0185651 41.4715 0C41.4925 0 41.5143 0 41.5353 0C45.8253 0 49.0502 1.95641 50.8652 5.66235C52.3906 8.77774 52.7748 13.0548 52.1946 17.5422C56.7164 13.6533 59.9404 9.32586 60.0026 9.24099C60.2905 8.85112 60.841 8.76537 61.2339 9.0518C61.6268 9.33735 61.7117 9.88458 61.4247 10.2744C61.2943 10.4521 58.177 14.6611 53.6377 18.6225C53.0006 19.1786 52.3696 19.7002 51.7456 20.1873C50.7138 25.1124 48.5855 30.0657 45.589 33.8256C42.5041 37.6951 38.8933 39.7381 35.2335 39.7381ZM29.4523 19.3271C27.6827 23.3248 26.3902 27.8335 26.9756 31.4484C27.5287 34.8643 29.6439 36.9383 33.4412 37.787C38.1696 38.8443 41.9055 35.6255 44.2063 32.7382C46.661 29.6581 48.5058 25.7445 49.5954 21.7477C44.9598 24.8551 40.7066 25.984 36.9094 25.1053C33.5567 24.3291 31.0345 22.0942 29.4523 19.3271ZM30.3747 17.3681C31.8405 20.5312 34.5552 22.7634 37.3102 23.4008C41.6167 24.398 46.248 22.1428 50.1949 19.1583C51.1024 14.3694 50.8801 9.69539 49.2803 6.42794C47.7523 3.30812 45.1217 1.72744 41.4793 1.75042C34.5211 1.78136 29.9835 5.17966 29.3411 10.8402C29.1722 12.329 29.2711 13.7452 29.5783 15.0563C31.5946 11.338 33.7378 8.53021 34.7259 7.94143C35.1424 7.69301 35.6842 7.82739 35.9344 8.24201C36.1847 8.65663 36.05 9.19413 35.6325 9.44255C34.8431 9.91286 32.461 13.1856 30.3747 17.3681Z" fill="black"/>
</svg>
